HIERARCHY
ROOT hip
{
	OFFSET 0.000000 0.000000 0.000000 
	CHANNELS 6 Xposition Yposition Zposition Xrotation Zrotation Yrotation
	JOINT abdomen
	{
		OFFSET 0.000000 3.402643 0.000000 
		CHANNELS 3 Xrotation Zrotation Yrotation
		JOINT chest
		{
			OFFSET 0.000000 8.438565 -0.680529 
			CHANNELS 3 Xrotation Zrotation Yrotation
			JOINT neck
			{
				OFFSET 0.000000 10.207942 -0.272212 
				CHANNELS 3 Xrotation Zrotation Yrotation
				JOINT head
				{
					OFFSET 0.000000 3.130431 0.000000 
					CHANNELS 3 Xrotation Zrotation Yrotation
					End Site
					{
						OFFSET 0.000000 3.130435 0.000000 
					}
				}
			}
			JOINT lCollar
			{
				OFFSET 3.470700 6.669187 -0.816635 
				CHANNELS 3 Yrotation Zrotation Xrotation
				JOINT lShldr
				{
					OFFSET 3.198488 0.000000 0.000000 
					CHANNELS 3 Zrotation Yrotation Xrotation
					JOINT lForeArm
					{
						OFFSET 10.139888 0.000000 0.000000 
						CHANNELS 3 Yrotation Zrotation Xrotation
						JOINT lHand
						{
							OFFSET 8.370511 0.000000 0.000000 
							CHANNELS 3 Zrotation Yrotation Xrotation
							End Site
							{
								OFFSET 4.083176 0.000000 0.000000 
							}
						}
					}
				}
			}
			JOINT rCollar
			{
				OFFSET -3.470700 6.669187 -0.816635 
				CHANNELS 3 Yrotation Zrotation Xrotation
				JOINT rShldr
				{
					OFFSET -3.198488 0.000000 0.000000 
					CHANNELS 3 Zrotation Yrotation Xrotation
					JOINT rForeArm
					{
						OFFSET -10.139888 0.000000 0.000000 
						CHANNELS 3 Yrotation Zrotation Xrotation
						JOINT rHand
						{
							OFFSET -8.370511 0.000000 0.000000 
							CHANNELS 3 Zrotation Yrotation Xrotation
							End Site
							{
								OFFSET -4.083176 0.000000 0.000000 
							}
						}
					}
				}
			}
		}
	}
	JOINT lThigh
	{
		OFFSET 5.308129 -1.633274 1.361059 
		CHANNELS 3 Xrotation Zrotation Yrotation
		JOINT lShin
		{
			OFFSET -2.041588 -20.007561 0.000000 
			CHANNELS 3 Xrotation Zrotation Yrotation
			JOINT lFoot
			{
				OFFSET 0.000000 -19.190928 -1.224953 
				CHANNELS 3 Xrotation Yrotation Zrotation
				End Site
				{
					OFFSET 0.000000 -2.449906 4.627600 
				}
			}
		}
	}
	JOINT rThigh
	{
		OFFSET -5.308129 -1.633274 1.361059 
		CHANNELS 3 Xrotation Zrotation Yrotation
		JOINT rShin
		{
			OFFSET 2.041588 -20.007561 0.000000 
			CHANNELS 3 Xrotation Zrotation Yrotation
			JOINT rFoot
			{
				OFFSET 0.000000 -19.190928 -1.224953 
				CHANNELS 3 Xrotation Yrotation Zrotation
				End Site
				{
					OFFSET 0.000000 -2.449906 4.627600 
				}
			}
		}
	}
}
MOTION
Frames: 20
Frame Time: 0.016667
19.960039 50.520214 -2.080484 -3.841129 -19.632462 5.515849 41.985325 12.112352 6.630148 1.765519 4.771319 -3.670161 -17.217159 0.322451 -0.088293 -3.387183 2.682617 -2.678332 -6.634110 -9.784281 -0.507605 -49.011353 -5.602867 -3.968208 -42.965092 -5.000000 20.915609 -24.169889 -3.784868 16.210594 1.170515 14.338273 -0.764773 43.606369 8.067674 -0.582879 46.436974 5.000000 9.074048 14.460663 -14.250310 -1.808613 -2.109361 6.765461 21.152861 36.889519 -6.789348 -5.574891 -24.048779 -6.913554 2.077155 -25.650867 2.032957 -35.028770 54.948170 -1.007648 -1.982962 0.307832 -3.394102 17.786520 
21.250071 50.746868 -1.951279 -3.281405 -19.952597 4.883578 41.957748 12.661074 6.844082 2.030035 4.810450 -3.621435 -17.421877 0.000000 0.000000 -3.684924 2.459591 -1.896138 -6.387708 -9.530723 -0.494513 -49.774624 -5.464643 -4.230571 -43.431786 -5.000000 20.788280 -23.766838 -4.097058 15.512430 1.180478 13.626389 -0.725615 44.361217 7.411616 -1.512560 46.383789 5.000000 9.103919 13.898979 -14.228427 -2.071453 -1.026266 5.959789 22.583595 33.968433 -7.357454 -5.418923 -20.996853 -7.853452 -0.517391 -26.205685 4.201660 -35.750610 54.215199 -0.480329 -1.102158 0.852671 -0.874168 20.572380 
22.626648 50.989521 -1.807335 -2.763005 -19.753349 4.293132 42.032074 12.896561 6.801542 2.290128 4.820471 -3.493937 -17.734858 -0.359613 0.103791 -4.108378 2.187019 -1.201788 -6.085994 -9.461420 -0.500565 -50.519398 -5.326756 -4.505733 -43.915386 -5.000000 20.708128 -23.599079 -4.552975 15.068425 1.271518 13.109524 -0.698869 45.021381 6.933892 -2.240449 46.172337 5.000000 9.211344 13.596176 -14.142553 -2.693865 -0.283572 5.039657 23.702478 31.758659 -7.842072 -5.344054 -16.496859 -8.308832 -4.294636 -26.101767 5.810800 -35.898571 52.876938 -0.019572 -0.358244 1.487022 1.528735 22.455399 
24.060926 51.242836 -1.653564 -2.271981 -19.209770 3.752140 42.164829 12.886502 6.595967 2.544152 4.820851 -3.307984 -18.117403 -0.746730 0.221611 -4.618472 1.874905 -0.576183 -5.744720 -9.519992 -0.503592 -51.235458 -5.194501 -4.788663 -44.414951 -5.000000 20.646215 -23.587864 -5.099679 14.781509 1.403307 12.709671 -0.675992 45.635342 6.599470 -2.837093 45.858421 5.000000 9.359512 13.462410 -14.022877 -3.544067 0.261606 4.014939 24.667917 30.022213 -8.255041 -5.279209 -11.043093 -8.887897 -8.895975 -25.501860 7.023293 -35.640625 51.110214 0.427458 0.257681 2.187899 3.829555 23.698149 
25.509449 51.475533 -1.502492 -1.832189 -18.408564 3.322697 42.328423 12.671838 6.233161 2.788758 4.811450 -3.122033 -18.530640 -1.132380 0.349064 -5.177122 1.572265 -0.048810 -5.433543 -9.666328 -0.511147 -51.852886 -5.079245 -5.060875 -44.918728 -5.000000 20.577896 -23.628691 -5.662045 14.583350 1.554701 12.485614 -0.654854 46.133385 6.344833 -3.361835 45.548527 5.000000 9.484494 13.404918 -13.887804 -4.400253 0.623851 2.956995 25.488924 28.822716 -8.594890 -5.249280 -5.632977 -9.711729 -13.288499 -24.764004 7.871371 -35.081635 49.337234 0.927588 0.949145 2.554147 5.735285 24.508043 
27.014936 51.625729 -1.362210 -1.556252 -16.546274 3.299893 42.621780 11.626334 5.234057 2.966929 4.792322 -2.965447 -19.082024 -1.497246 0.483216 -5.897130 1.279296 0.058797 -5.213582 -10.163730 -0.536796 -52.041977 -5.023312 -5.283185 -45.424194 -5.000000 20.438358 -23.911989 -6.288253 14.761019 1.764428 12.875693 -0.675046 46.175339 6.407788 -3.520897 45.291595 5.000000 9.488621 13.605487 -13.692861 -5.281236 0.223909 1.752586 25.928003 29.907547 -8.609848 -5.488621 -0.046109 -10.446898 -17.186735 -23.407518 7.245982 -33.216766 47.455296 1.656011 1.750857 1.542670 5.948420 23.572361 
28.520433 51.775921 -1.221929 -1.294693 -14.693572 3.289918 42.929276 10.587390 4.252248 3.145007 4.773163 -2.798281 -19.625019 -1.862098 0.617639 -6.618098 0.976558 0.175922 -5.003628 -10.661125 -0.564210 -52.242336 -4.962145 -5.500033 -45.928017 -5.000000 20.302565 -24.206930 -6.923703 14.939639 1.974431 13.275519 -0.697952 46.207520 6.470428 -3.680972 45.023529 5.000000 9.498648 13.794019 -13.505610 -6.159101 -0.155539 0.539048 26.383148 30.939995 -8.620140 -5.721941 5.385607 -11.656993 -21.025229 -22.084095 6.583100 -31.343239 45.562386 2.409275 2.515850 0.525377 6.118426 22.629490 
30.004562 51.733276 -1.124732 -1.123812 -12.346833 3.788766 43.367096 9.185139 2.966643 3.191739 4.734312 -2.710663 -20.139839 -2.207622 0.749205 -7.346446 0.585931 -0.263658 -4.988943 -11.315370 -0.588352 -52.067085 -4.922594 -5.657599 -46.384357 -5.000000 20.081179 -24.509756 -7.400882 15.104527 2.217598 13.958153 -0.735621 46.073196 6.894561 -3.391742 44.949238 5.000000 9.293521 14.050394 -13.317206 -6.744129 -1.442684 -0.199519 26.635700 34.894642 -8.191380 -6.201409 8.414275 -12.489226 -22.964737 -20.786974 4.756976 -28.870041 44.126038 3.202803 3.235686 -2.294933 4.566895 20.091372 
31.483351 51.642410 -1.038306 -0.953933 -9.883327 4.410152 43.876682 7.688374 1.591775 3.189009 4.685664 -2.641736 -20.636850 -2.551658 0.890469 -8.068811 0.165998 -0.830075 -5.015904 -11.998015 -0.625512 -51.793430 -4.884100 -5.807802 -46.836433 -5.000000 19.824598 -24.816877 -7.861046 15.258916 2.472108 14.718789 -0.777454 45.897610 7.410509 -2.982058 44.932339 5.000000 9.028681 14.312790 -13.133703 -7.245169 -2.945555 -0.843070 26.873381 39.593338 -7.587358 -6.685642 10.698549 -13.191463 -24.409485 -19.611904 2.590691 -26.302490 42.809059 4.032859 3.947242 -5.581885 2.689786 16.991217 
32.935150 51.463432 -0.982131 -0.765560 -7.703949 5.114130 44.435097 6.442094 0.388844 3.160007 4.578477 -2.524054 -21.068100 -2.932816 1.047253 -8.763484 -0.224528 -1.542995 -5.091698 -12.641645 -0.660797 -51.482510 -4.830936 -5.941360 -47.189991 -5.000000 19.585325 -24.969364 -8.257787 15.331288 2.706258 15.381902 -0.814349 45.795731 8.192128 -2.245907 44.982468 5.000000 8.597740 14.556171 -12.898278 -7.612370 -4.799840 -0.853013 26.976509 45.182796 -6.806996 -7.228557 12.076563 -13.584840 -25.037766 -18.793587 0.304893 -24.072752 41.940781 4.638287 4.481311 -8.703401 0.840300 13.554256 
34.346478 51.152271 -0.971334 -0.546008 -5.935197 5.919601 45.015945 5.510993 -0.560970 3.086530 4.373698 -2.347130 -21.394678 -3.362200 1.211347 -9.398568 -0.585393 -2.470874 -5.225532 -13.207257 -0.692184 -51.104412 -4.766078 -6.051955 -47.382530 -5.000000 19.367622 -24.874201 -8.564468 15.276644 2.909335 15.898737 -0.841095 45.788490 9.378221 -1.016509 45.146828 5.000000 7.925122 14.797239 -12.601281 -7.759842 -7.200067 0.023688 26.841444 52.189449 -5.725019 -7.780695 11.807403 -13.371100 -24.492741 -18.440535 -2.095944 -22.313616 41.701595 4.927750 4.738661 -11.642205 -1.202345 9.674273 
35.757801 50.841114 -0.960536 -0.304754 -4.160714 6.726649 45.623955 4.603162 -1.514506 3.002660 4.159117 -2.161208 -21.733028 -3.791533 1.376073 -10.041339 -0.945590 -3.408705 -5.359694 -13.772866 -0.721366 -50.725559 -4.707530 -6.168868 -47.584492 -5.000000 19.143017 -24.781828 -8.875689 15.232023 3.112703 16.415565 -0.870533 45.806549 10.563492 0.218421 45.292309 5.000000 7.266082 15.028722 -12.302168 -7.910184 -9.597313 0.906156 26.680542 59.139423 -4.566013 -8.184727 11.624137 -13.177149 -23.965321 -18.166784 -4.506906 -20.575125 41.480663 5.201524 5.019178 -14.703426 -3.089645 5.730382 
37.145512 50.503391 -0.991330 -0.114634 -3.602814 7.377491 46.129574 4.457421 -1.680919 2.896036 3.837203 -1.847847 -21.886871 -4.212630 1.529825 -10.469052 -1.119627 -4.473518 -5.540119 -14.123932 -0.741826 -50.404427 -4.327318 -6.495120 -47.547039 -5.000000 19.151751 -24.057098 -9.156199 14.643109 3.221366 16.493578 -0.874566 45.950600 12.232953 1.973163 45.209942 5.000000 6.462931 15.254885 -11.540742 -7.957377 -12.135316 3.326590 25.517496 65.603035 -3.687235 -8.849679 10.322520 -12.009079 -22.465673 -18.421331 -6.469444 -20.115499 42.074997 4.918192 4.807823 -15.585269 -4.010492 3.910312 
38.533218 50.165668 -1.022125 0.088966 -3.036332 8.038244 46.625660 4.318851 -1.854451 2.786602 3.515192 -1.544272 -22.043026 -4.622536 1.691840 -10.890060 -1.292745 -5.548323 -5.720538 -14.465244 -0.759431 -50.085228 -3.943348 -6.817042 -47.516758 -5.000000 19.162806 -23.341713 -9.426585 14.063612 3.329880 16.561840 -0.878094 46.153831 13.893324 3.735570 45.104828 5.000000 5.666089 15.479063 -10.788714 -7.998858 -14.715879 5.702332 24.271975 72.060829 -2.721730 -9.436005 8.908533 -10.831439 -20.958937 -18.690098 -8.455882 -19.654396 42.704136 4.648200 4.620320 -16.480789 -4.894719 2.104200 
39.954720 49.949162 -1.031793 0.211244 -2.866380 8.790201 46.996525 4.366198 -1.789945 2.732450 3.202863 -1.270570 -22.161783 -4.856418 1.777257 -11.199558 -1.367876 -6.584111 -5.920132 -14.591010 -0.777824 -49.904106 -3.261069 -7.452781 -47.382504 -5.000000 19.471582 -22.411024 -9.851507 13.160576 3.290193 16.522833 -0.876079 46.315865 15.432283 5.270880 44.883156 5.000000 5.018591 15.560129 -9.771825 -8.124421 -17.026026 8.294548 22.488859 76.883636 -1.951635 -10.078202 7.097526 -8.686344 -19.373371 -18.592276 -10.291390 -19.683277 42.811188 4.267491 4.295522 -16.478725 -5.293842 1.893487 
41.398769 49.813469 -1.027377 0.271584 -2.956114 9.602648 47.260715 4.537828 -1.571912 2.724221 2.900239 -1.026122 -22.255508 -4.958134 1.822167 -11.436187 -1.384191 -7.609672 -6.115169 -14.571472 -0.776813 -49.806236 -2.381128 -8.306087 -47.178036 -5.000000 19.980919 -21.351685 -10.379014 12.030938 3.141690 16.396065 -0.869524 46.482639 16.874895 6.661279 44.574978 5.000000 4.470055 15.538639 -8.577077 -8.302672 -19.203653 11.018847 20.311426 80.669579 -1.297276 -10.789302 4.898896 -5.944759 -17.658979 -18.242195 -12.070452 -20.031906 42.636093 3.830829 3.897107 -15.771291 -5.314650 2.740441 
42.871761 49.739159 -1.005651 0.303096 -3.101347 10.522892 47.485710 4.757142 -1.327593 2.722634 2.626866 -0.820715 -22.326572 -5.014556 1.841391 -11.637049 -1.370934 -8.654988 -6.329054 -14.503174 -0.773284 -49.746616 -1.383748 -9.260650 -47.001209 -5.000000 20.580013 -20.357166 -10.884075 10.847825 2.944531 16.279047 -0.863470 46.628609 18.063498 7.793093 44.279789 5.000000 4.024893 15.434496 -7.426870 -8.498621 -21.314417 13.520611 17.959797 83.668633 -0.701973 -11.242913 2.539193 -3.072279 -15.755749 -17.575663 -13.765537 -20.441158 41.994499 3.456535 3.458368 -14.812179 -5.366239 3.795607 
44.460533 49.910374 -0.914688 0.159499 -3.469211 11.877157 47.488495 5.150997 -0.947990 2.784472 2.490167 -0.771512 -22.329226 -4.874239 1.789795 -11.720489 -1.231703 -9.816782 -6.589212 -14.249584 -0.757771 -49.750935 0.102987 -10.618032 -46.931889 -5.000000 21.477619 -19.714327 -11.508662 9.481226 2.571605 16.162029 -0.857413 46.606976 18.294724 7.870197 44.086151 5.000000 4.017158 15.020091 -6.373826 -8.787349 -22.769104 15.502844 15.125855 83.731323 -0.673693 -10.820960 -0.009982 0.492106 -13.427923 -15.721578 -15.173393 -21.119518 39.577000 3.232173 3.003547 -12.515606 -5.571927 5.552377 
46.049316 50.081596 -0.823724 0.007312 -3.831206 13.242860 47.504623 5.527730 -0.576643 2.846013 2.363232 -0.722743 -22.332880 -4.732434 1.747844 -11.809298 -1.092875 -10.988404 -6.849307 -13.986242 -0.744185 -49.800594 1.577995 -11.969663 -46.842800 -5.000000 22.372068 -19.062054 -12.095759 8.108960 2.208460 16.045012 -0.851352 46.574997 18.527285 7.944204 43.891838 5.000000 4.016241 14.599028 -5.329552 -9.070754 -24.343857 17.419931 12.244153 83.812416 -0.604826 -10.394817 -2.730089 3.926363 -10.890213 -13.825857 -16.555370 -21.850389 37.151421 3.007301 2.532149 -10.207253 -5.696128 7.308209 
47.786812 50.409218 -0.687461 -0.181828 -3.916917 14.898472 47.316597 5.707476 -0.388047 2.981386 2.382754 -0.722716 -22.239641 -4.414637 1.630072 -11.786931 -1.030457 -12.306883 -7.215616 -13.625363 -0.723241 -49.715214 3.173653 -13.309026 -46.869286 -5.000000 23.296778 -19.026947 -12.596506 7.146424 1.719426 15.996254 -0.848825 46.433083 17.567253 6.773283 43.959213 5.000000 4.509651 13.852421 -4.702013 -9.239141 -24.949692 18.025867 9.933249 81.207039 -0.799479 -8.727943 -5.007771 6.290248 -7.892317 -11.229280 -17.668421 -22.602020 33.421043 2.528922 1.933504 -6.554815 -6.307817 8.447724 
